<?xml version="1.0" encoding="UTF-8"?><svg id="Layer_1" xmlns="http://www.w3.org/2000/svg" viewBox="0 0 92.36 101.89"><polygon points=".68 63.14 9.72 34.62 83.31 34.03 91.86 63.65 51.79 94.75 39.31 93.67 .68 63.14" fill="#fff"/><path d="M31.77,27.89h29.33l25.11,14.44s-36.33,2.59-36,48.02h-7.56s1.33-43.24-35.89-48.13l25-14.33Z" fill="#f37545"/><polygon points="86.21 0 61.1 27.89 86.21 42.33 86.21 0" fill="#ec622c"/><polygon points="6.29 0 6.77 42.22 31.77 27.89 6.29 0" fill="#f37029"/><polygon points="42.66 90.35 39.03 93.61 46.14 101.89 53.53 93.67 50.21 90.35 42.66 90.35"/><polygon points="39.03 93.61 0 63.88 27.41 75.29 39.31 93.36 39.03 93.61" fill="#f3e9dc"/><polygon points="53.53 93.67 92.36 63.88 64.58 75.19 53.23 93.37 53.53 93.67" fill="#f3e9dc"/><path d="M72.53,60.69s-6.43,8.07-13.39,11.78c0,0-.78-4.28,4.13-8.5s9.27-3.28,9.27-3.28Z" fill="#231f20"/><path d="M19.65,60.69s6.43,8.07,13.39,11.78c0,0,.78-4.28-4.13-8.5s-9.27-3.28-9.27-3.28Z" fill="#231f20"/><polygon points="86.21 42.33 92.36 63.88 91.53 64.22 85.26 42.44 86.21 42.33" fill="#f3e9dc"/><polygon points="6.77 42.22 0 63.88 1.02 64.3 7.81 42.37 6.77 42.22" fill="#f3e9dc"/><polygon points="3.04 65.14 1.4 63.07 1.02 64.3 3.04 65.14" fill="#f3e9dc"/><polygon points="91.53 64.22 91.22 63.14 88.51 65.45 91.53 64.22" fill="#f3e9dc"/></svg>