<?xml version="1.0" encoding="UTF-8"?><svg id="Layer_1" xmlns="http://www.w3.org/2000/svg" viewBox="0 0 552.34 101.89"><polygon points=".68 63.14 9.72 34.62 83.31 34.03 91.86 63.65 51.79 94.75 39.31 93.67 .68 63.14" fill="#fff"/><path d="M31.77,27.89h29.33l25.11,14.44s-36.33,2.59-36,48.02h-7.56s1.33-43.24-35.89-48.13l25-14.33Z" fill="#f37545"/><polygon points="86.21 0 61.1 27.89 86.21 42.33 86.21 0" fill="#ec622c"/><polygon points="6.29 0 6.77 42.22 31.77 27.89 6.29 0" fill="#f37029"/><polygon points="42.66 90.35 39.03 93.61 46.14 101.89 53.53 93.67 50.21 90.35 42.66 90.35"/><polygon points="39.03 93.61 0 63.88 27.41 75.29 39.31 93.36 39.03 93.61" fill="#f3e9dc"/><polygon points="53.53 93.67 92.36 63.88 64.58 75.19 53.23 93.37 53.53 93.67" fill="#f3e9dc"/><path d="M72.53,60.69s-6.43,8.07-13.39,11.78c0,0-.78-4.28,4.13-8.5s9.27-3.28,9.27-3.28Z" fill="#231f20"/><path d="M19.65,60.69s6.43,8.07,13.39,11.78c0,0,.78-4.28-4.13-8.5s-9.27-3.28-9.27-3.28Z" fill="#231f20"/><polygon points="86.21 42.33 92.36 63.88 91.53 64.22 85.26 42.44 86.21 42.33" fill="#f3e9dc"/><polygon points="6.77 42.22 0 63.88 1.02 64.3 7.81 42.37 6.77 42.22" fill="#f3e9dc"/><polygon points="3.04 65.14 1.4 63.07 1.02 64.3 3.04 65.14" fill="#f3e9dc"/><polygon points="91.53 64.22 91.22 63.14 88.51 65.45 91.53 64.22" fill="#f3e9dc"/><rect x="86.21" y="30.66" width="466.13" height="56.92" fill="none"/><path d="M117.74,70.73c1.6,2.34,4.07,3.51,7.41,3.51,1.28,0,2.47-.26,3.57-.79,1.1-.53,2-1.35,2.68-2.47s1.03-2.52,1.03-4.2c0-1.44-.35-2.73-1.05-3.87-.7-1.14-1.65-2.18-2.86-3.13-1.2-.95-2.81-2.02-4.81-3.23-2.22-1.33-4.01-2.52-5.36-3.58-1.35-1.06-2.46-2.32-3.32-3.79-.87-1.47-1.3-3.19-1.3-5.18,0-2.11.48-3.9,1.44-5.36.96-1.46,2.23-2.55,3.83-3.27,1.59-.72,3.35-1.08,5.26-1.08,1.15,0,2.14.1,2.97.29.83.19,1.52.43,2.06.71.55.28,1.15.64,1.8,1.08.84.53,1.48.79,1.91.79.35,0,.61-.2.79-.59.18-.39.33-1.02.44-1.87h1.29c-.18,2.19-.27,6-.27,11.43h-1.29c-.15-1.91-.56-3.68-1.24-5.3-.68-1.62-1.69-2.94-3.01-3.95-1.32-1.01-2.97-1.52-4.94-1.52-1.31,0-2.49.27-3.53.82s-1.85,1.31-2.43,2.3c-.58.98-.88,2.11-.88,3.39,0,2.02.61,3.66,1.83,4.89,1.22,1.24,2.65,2.36,4.28,3.35,1.63.99,2.73,1.66,3.29,2.01,2.35,1.48,4.21,2.76,5.58,3.84,1.37,1.08,2.46,2.34,3.28,3.77.82,1.43,1.23,3.09,1.23,4.99,0,2.3-.53,4.24-1.59,5.84-1.06,1.6-2.48,2.79-4.28,3.6-1.8.8-3.81,1.2-6.03,1.2-1.79,0-3.25-.19-4.4-.56s-2.23-.88-3.25-1.52c-.84-.53-1.48-.79-1.91-.79-.35,0-.61.2-.79.59-.18.39-.33,1.02-.44,1.87h-1.29c.15-2.04.22-6.52.22-13.43h1.29c.25,3.79,1.18,6.86,2.79,9.2Z" fill="#fff"/><path d="M185.21,71.81c.28.58.73.99,1.34,1.23.61.24,1.44.36,2.5.36v1.18c-3.43-.15-5.67-.22-6.73-.22s-3.13.07-6.26.22v-1.18c.93,0,1.65-.12,2.17-.36.52-.24.9-.65,1.15-1.23.25-.58.37-1.39.37-2.43v-16.19c0-1.42-.08-2.57-.25-3.46-.16-.88-.56-1.6-1.18-2.16-.62-.56-1.57-.83-2.84-.83-1.42,0-2.71.45-3.86,1.34-1.15.89-2.05,2.11-2.71,3.66-.66,1.55-.98,3.26-.98,5.14v12.5c0,1.04.14,1.85.42,2.43.28.58.72.99,1.33,1.23.6.24,1.43.36,2.49.36v1.18c-3.43-.15-5.66-.22-6.7-.22s-3.15.07-6.29.22v-1.18c.93,0,1.66-.12,2.19-.36.53-.24.91-.65,1.15-1.23.24-.58.36-1.39.36-2.43v-16.19c0-1.42-.08-2.57-.25-3.46-.16-.88-.56-1.6-1.18-2.16-.62-.56-1.56-.83-2.82-.83-1.44,0-2.73.45-3.88,1.35s-2.05,2.13-2.71,3.69-.98,3.28-.98,5.15v12.44c0,1.04.12,1.85.37,2.43.25.58.63.99,1.16,1.23.53.24,1.26.36,2.19.36v1.18c-3.14-.15-5.23-.22-6.29-.22s-3.3.07-6.73.22v-1.18c1.06,0,1.89-.12,2.5-.36.61-.24,1.06-.65,1.34-1.23.28-.58.42-1.39.42-2.43v-17.53c0-1.73-.31-2.99-.94-3.77-.63-.78-1.74-1.18-3.32-1.18v-1.18c1.17.11,2.32.16,3.47.16,2.37,0,4.31-.25,5.82-.77v6.59c.91-2.3,2.19-4,3.83-5.1,1.64-1.1,3.43-1.65,5.36-1.65,2.53,0,4.48.7,5.82,2.11.93,1.02,1.5,2.52,1.72,4.51.93-2.35,2.21-4.04,3.86-5.07,1.64-1.03,3.46-1.54,5.47-1.54,2.53,0,4.48.7,5.82,2.11.67.75,1.15,1.7,1.42,2.86.27,1.16.41,2.66.41,4.5v14.96c0,1.04.14,1.85.42,2.43Z" fill="#fff"/><path d="M206.46,47.27c-.9-.79-2.18-1.19-3.84-1.19-2.64,0-4.49.67-5.55,2,.75.18,1.37.58,1.87,1.19.5.61.75,1.35.75,2.23,0,.95-.3,1.69-.89,2.23-.59.54-1.39.81-2.39.81-.95,0-1.69-.32-2.23-.96-.54-.64-.81-1.48-.81-2.52,0-1.46.88-2.79,2.62-3.99.91-.6,2.04-1.1,3.38-1.5,1.34-.4,2.83-.6,4.47-.6,1.53,0,2.88.19,4.05.56,1.17.37,2.08.89,2.73,1.54.86.88,1.44,1.89,1.76,3.05.32,1.16.48,2.76.48,4.8v15.56c0,.93.13,1.6.4,2.02.26.42.71.63,1.33.63.46,0,.88-.1,1.26-.3.38-.2.8-.49,1.26-.88l.63.96c-.66.49-1.2.88-1.64,1.15s-.94.49-1.5.66c-.57.16-1.22.25-1.97.25-1.8,0-3.06-.45-3.76-1.35-.7-.9-1.05-2.11-1.05-3.62-1.09,1.8-2.41,3.09-3.94,3.84s-3.09,1.13-4.68,1.13c-1.29,0-2.48-.22-3.55-.67-1.08-.45-1.94-1.14-2.58-2.08-.65-.94-.97-2.11-.97-3.51s.35-2.63,1.04-3.64c.69-1,1.67-1.88,2.93-2.64,1.26-.76,2.94-1.58,5.06-2.47.36-.15,1.26-.51,2.68-1.09,1.42-.58,2.45-1.17,3.08-1.75.63-.58.94-1.22.94-1.91v-3.47c0-2.17-.45-3.65-1.35-4.44ZM206.44,58.66c-.64.36-1.97,1.04-3.99,2.02-1.08.51-1.99,1.03-2.73,1.57-.75.54-1.39,1.26-1.91,2.17-.53.91-.79,2.03-.79,3.36,0,1.62.41,2.85,1.23,3.68.82.83,1.9,1.24,3.25,1.24,2.48,0,4.58-1.41,6.32-4.24v-10.99c-.27.42-.73.81-1.37,1.18Z" fill="#fff"/><path d="M228.74,71.81c.28.58.73.99,1.34,1.23.61.24,1.44.36,2.5.36v1.18c-3.43-.15-5.69-.22-6.78-.22s-3.35.07-6.78.22v-1.18c1.06,0,1.89-.12,2.5-.36.61-.24,1.06-.65,1.34-1.23.28-.58.42-1.39.42-2.43v-31.99c0-1.73-.31-2.98-.94-3.76-.63-.77-1.74-1.16-3.32-1.16v-1.18c1.17.11,2.32.16,3.47.16,2.41,0,4.35-.26,5.82-.79v38.72c0,1.04.14,1.85.42,2.43Z" fill="#fff"/><path d="M244.77,71.81c.28.58.73.99,1.34,1.23.61.24,1.44.36,2.5.36v1.18c-3.43-.15-5.69-.22-6.78-.22s-3.35.07-6.78.22v-1.18c1.06,0,1.89-.12,2.5-.36.61-.24,1.06-.65,1.34-1.23.28-.58.42-1.39.42-2.43v-31.99c0-1.73-.31-2.98-.94-3.76-.63-.77-1.74-1.16-3.32-1.16v-1.18c1.17.11,2.32.16,3.47.16,2.41,0,4.35-.26,5.82-.79v38.72c0,1.04.14,1.85.42,2.43Z" fill="#fff"/><path d="M282.38,35.09c5.49,0,9.39-.05,11.7-.16-.26,2.66-.38,5.05-.38,7.16,0,1.88.05,3.41.16,4.59h-1.29c-.29-2.9-.67-5.04-1.12-6.44-.46-1.39-1.24-2.42-2.37-3.06-1.12-.65-2.84-.97-5.15-.97h-3.53c-1.35,0-2.33.11-2.94.33-.61.22-1.03.64-1.26,1.27-.23.63-.34,1.65-.34,3.05v13.78h4.1c1.88,0,3.13-.56,3.75-1.68.62-1.12,1-2.26,1.15-3.43.15-1.17.25-1.92.3-2.27h1.29c-.13,1.82-.19,3.58-.19,5.28l.03,2.65c0,1.97.12,4.62.36,7.96h-1.31c-.04-.25-.14-1.16-.31-2.71-.17-1.55-.68-2.72-1.52-3.5-.84-.78-2.01-1.18-3.53-1.18h-4.1v12.88c0,1.4.15,2.42.44,3.06.29.64.82,1.08,1.59,1.31.77.24,1.98.38,3.64.44v1.12c-1.93-.11-4.68-.16-8.23-.16-3.21,0-5.6.05-7.16.16v-1.12c1.35-.05,2.33-.2,2.94-.44.61-.24,1.03-.67,1.26-1.31.23-.64.34-1.66.34-3.06v-27.78c0-1.4-.11-2.42-.34-3.06-.23-.64-.65-1.08-1.26-1.31-.61-.24-1.59-.38-2.94-.44v-1.12c3.66.11,9.08.16,16.24.16Z" fill="#fff"/><path d="M316.19,46.58c1.9,1.08,3.41,2.75,4.51,5.02,1.1,2.27,1.65,5.14,1.65,8.6s-.55,6.33-1.65,8.59c-1.1,2.26-2.61,3.92-4.51,4.99-1.91,1.07-4.09,1.6-6.55,1.6s-4.64-.53-6.55-1.6c-1.91-1.07-3.41-2.73-4.51-4.99-1.1-2.26-1.65-5.12-1.65-8.59s.55-6.33,1.65-8.6c1.1-2.27,2.61-3.94,4.51-5.02,1.9-1.08,4.09-1.61,6.55-1.61s4.64.54,6.55,1.61ZM304.32,49.53c-1.3,2.3-1.96,5.85-1.96,10.66s.65,8.34,1.96,10.62c1.3,2.29,3.08,3.43,5.32,3.43s4.01-1.14,5.32-3.43c1.3-2.29,1.96-5.83,1.96-10.62s-.65-8.37-1.96-10.66c-1.3-2.3-3.08-3.45-5.32-3.45s-4.02,1.15-5.32,3.45Z" fill="#fff"/><path d="M350.57,72.62c.47.39,1.07.65,1.78.78v1.18c-1.9-.15-3.22-.22-3.96-.22-1.28,0-3.48.07-6.62.22v-1.18c.6,0,1.12-.12,1.56-.36.44-.24.66-.54.66-.9,0-.18-.08-.4-.25-.66l-6.37-9.3-4.1,5.33c-1.04,1.33-1.56,2.45-1.56,3.36,0,1.53,1.38,2.39,4.13,2.57v1.12c-1.97-.11-4.09-.16-6.37-.16-1.66,0-3.08.05-4.27.16v-1.12c.73-.09,1.48-.43,2.24-1.01.77-.58,1.66-1.55,2.68-2.9l6.45-8.5-7.79-11.32c-.51-.75-.94-1.31-1.29-1.68-.35-.37-.68-.64-1-.81-.32-.16-.72-.27-1.19-.33v-1.18c1.97.15,3.3.22,3.99.22,1.26,0,3.45-.07,6.59-.22v1.18c-.6,0-1.12.11-1.54.34-.43.23-.64.53-.64.92,0,.22.07.44.22.66l5.99,8.72,3.88-5.41c1.13-1.59,1.7-2.76,1.7-3.53,0-.53-.26-.93-.77-1.22-.51-.28-1.32-.46-2.43-.53v-1.12c1.93.11,3.5.16,4.7.16,1.64,0,3.05-.05,4.24-.16v1.12c-1.51.18-3.15,1.5-4.92,3.94l-5.66,7.82,8.23,12c.66.95,1.22,1.62,1.7,2.01Z" fill="#fff"/><path d="M374.22,70.73c1.6,2.34,4.07,3.51,7.41,3.51,1.28,0,2.46-.26,3.57-.79,1.1-.53,2-1.35,2.68-2.47s1.03-2.52,1.03-4.2c0-1.44-.35-2.73-1.05-3.87-.7-1.14-1.65-2.18-2.86-3.13-1.2-.95-2.81-2.02-4.81-3.23-2.22-1.33-4.01-2.52-5.36-3.58-1.35-1.06-2.46-2.32-3.32-3.79-.87-1.47-1.3-3.19-1.3-5.18,0-2.11.48-3.9,1.44-5.36.96-1.46,2.23-2.55,3.83-3.27,1.59-.72,3.35-1.08,5.26-1.08,1.15,0,2.14.1,2.97.29.83.19,1.52.43,2.06.71.55.28,1.15.64,1.8,1.08.84.53,1.48.79,1.91.79.35,0,.61-.2.79-.59.18-.39.33-1.02.44-1.87h1.29c-.18,2.19-.27,6-.27,11.43h-1.29c-.15-1.91-.56-3.68-1.24-5.3-.68-1.62-1.69-2.94-3.01-3.95-1.32-1.01-2.97-1.52-4.94-1.52-1.31,0-2.49.27-3.53.82s-1.85,1.31-2.43,2.3c-.58.98-.88,2.11-.88,3.39,0,2.02.61,3.66,1.83,4.89,1.22,1.24,2.65,2.36,4.28,3.35,1.63.99,2.73,1.66,3.29,2.01,2.35,1.48,4.21,2.76,5.58,3.84,1.37,1.08,2.46,2.34,3.28,3.77.82,1.43,1.23,3.09,1.23,4.99,0,2.3-.53,4.24-1.59,5.84-1.06,1.6-2.48,2.79-4.28,3.6-1.8.8-3.81,1.2-6.03,1.2-1.79,0-3.25-.19-4.4-.56s-2.23-.88-3.25-1.52c-.84-.53-1.48-.79-1.91-.79-.35,0-.61.2-.79.59-.18.39-.33,1.02-.44,1.87h-1.29c.15-2.04.22-6.52.22-13.43h1.29c.25,3.79,1.18,6.86,2.79,9.2Z" fill="#fff"/><path d="M415.57,45.78v1.12h-8.29v21.68c0,1.7.3,2.91.9,3.65s1.49,1.11,2.68,1.11,2.16-.46,2.98-1.39,1.51-2.46,2.08-4.59l1.09.27c-.91,5.16-3.34,7.74-7.27,7.74-1.26,0-2.3-.15-3.12-.45s-1.55-.77-2.19-1.41c-.8-.82-1.37-1.83-1.7-3.02-.33-1.19-.49-2.8-.49-4.83v-18.76h-5.39v-1.12h5.39v-8.56c2.1-.05,3.77-.32,5.03-.79v9.35h8.29Z" fill="#fff"/><path d="M444.46,72.29c.63.77,1.74,1.16,3.32,1.16v1.18c-1.17-.11-2.32-.16-3.47-.16-2.41,0-4.35.26-5.82.79v-6.62c-.91,2.3-2.18,3.99-3.81,5.09-1.63,1.09-3.42,1.64-5.37,1.64-2.52,0-4.46-.71-5.82-2.13-.67-.73-1.15-1.68-1.44-2.84-.28-1.17-.42-2.66-.42-4.48v-14.05c0-1.73-.31-2.99-.93-3.77-.62-.78-1.72-1.18-3.31-1.18v-1.18c1.17.11,2.32.16,3.47.16,2.35,0,4.29-.25,5.82-.77v22.01c0,1.42.08,2.57.25,3.45s.56,1.59,1.18,2.15c.62.56,1.56.83,2.82.83,1.44,0,2.73-.45,3.88-1.34,1.15-.89,2.05-2.11,2.71-3.66.66-1.55.98-3.26.98-5.14v-11.57c0-1.73-.31-2.99-.94-3.77-.63-.78-1.74-1.18-3.32-1.18v-1.18c1.17.11,2.32.16,3.47.16,2.37,0,4.31-.25,5.82-.77v23.41c0,1.73.31,2.99.94,3.76Z" fill="#fff"/><path d="M477.05,72.24c.63.77,1.74,1.16,3.32,1.16v1.18c-1.19-.11-2.34-.16-3.47-.16-2.41,0-4.35.26-5.82.79v-4.98c-.69,1.68-1.71,2.95-3.05,3.83s-2.98,1.31-4.91,1.31c-2.37,0-4.41-.57-6.12-1.7-1.71-1.13-3.03-2.83-3.95-5.09-.92-2.26-1.37-5.06-1.35-8.39-.02-3.26.55-6.04,1.7-8.34s2.68-4.02,4.61-5.17c1.92-1.15,4.04-1.72,6.36-1.72,1.42,0,2.73.27,3.92.81,1.19.54,2.13,1.37,2.8,2.5v-10.88c0-1.73-.31-2.98-.94-3.76-.63-.77-1.74-1.16-3.32-1.16v-1.18c1.18.11,2.34.16,3.47.16,2.41,0,4.35-.26,5.82-.79v37.82c0,1.73.31,2.99.94,3.76ZM464.81,46.25c-1.51,0-2.85.52-4.01,1.54-1.16,1.03-2.06,2.59-2.72,4.68-.66,2.09-.98,4.66-.96,7.72-.02,4.48.62,7.85,1.9,10.1,1.29,2.25,3.19,3.38,5.7,3.38.97,0,1.88-.25,2.73-.74.86-.49,1.6-1.23,2.24-2.2.64-.98,1.09-2.15,1.37-3.51v-16.65c-1.04-2.88-3.13-4.32-6.26-4.32Z" fill="#fff"/><path d="M492.88,71.81c.28.58.73.99,1.34,1.23.61.24,1.44.36,2.5.36v1.18c-3.43-.15-5.69-.22-6.78-.22s-3.35.07-6.78.22v-1.18c1.06,0,1.89-.12,2.5-.36.61-.24,1.06-.65,1.34-1.23.28-.58.42-1.39.42-2.43v-17.53c0-1.73-.31-2.99-.94-3.77-.63-.78-1.74-1.18-3.32-1.18v-1.18c1.17.11,2.32.16,3.47.16,2.37,0,4.31-.25,5.82-.77v24.25c0,1.04.14,1.85.42,2.43ZM491.34,32.22c.55.33.98.77,1.31,1.31s.49,1.14.49,1.78-.16,1.24-.49,1.79c-.33.56-.77.99-1.31,1.31-.55.32-1.14.48-1.78.48s-1.24-.16-1.79-.48c-.56-.32-.99-.76-1.31-1.31-.32-.56-.48-1.15-.48-1.79s.16-1.23.48-1.78c.32-.55.76-.98,1.31-1.31.56-.33,1.15-.49,1.79-.49s1.23.16,1.78.49Z" fill="#fff"/><path d="M519.84,46.58c1.9,1.08,3.41,2.75,4.51,5.02,1.1,2.27,1.65,5.14,1.65,8.6s-.55,6.33-1.65,8.59c-1.1,2.26-2.61,3.92-4.51,4.99-1.91,1.07-4.09,1.6-6.55,1.6s-4.64-.53-6.55-1.6c-1.91-1.07-3.41-2.73-4.51-4.99-1.1-2.26-1.65-5.12-1.65-8.59s.55-6.33,1.65-8.6c1.1-2.27,2.61-3.94,4.51-5.02,1.9-1.08,4.09-1.61,6.55-1.61s4.64.54,6.55,1.61ZM507.98,49.53c-1.3,2.3-1.96,5.85-1.96,10.66s.65,8.34,1.96,10.62c1.3,2.29,3.08,3.43,5.32,3.43s4.01-1.14,5.32-3.43c1.3-2.29,1.96-5.83,1.96-10.62s-.65-8.37-1.96-10.66c-1.3-2.3-3.08-3.45-5.32-3.45s-4.02,1.15-5.32,3.45Z" fill="#fff"/></svg>